<?xml version="1.0" encoding="utf-8" ?>
<svg baseProfile="full" height="300mm" version="1.1" viewBox="0,0,200,300" width="200mm" xmlns="http://www.w3.org/2000/svg" xmlns:ev="http://www.w3.org/2001/xml-events" xmlns:xlink="http://www.w3.org/1999/xlink"><defs /><rect fill="#222222" height="300" width="200" x="0" y="0" /><text fill="#FFFFFF" style="font-size:12px; font-family:Arial; font-weight:bold;" x="10" y="20">Over 10km Runs</text><text fill="#FFFFFF" style="font-size:4px; font-family:Arial" x="10" y="280">ATHLETE</text><text fill="#FFFFFF" style="font-size:9px; font-family:Arial" x="10" y="290">大庙村的傻孩子</text><text fill="#FFFFFF" style="font-size:4px; font-family:Arial" x="120" y="280">STATISTICS</text><text fill="#FFFFFF" style="font-size:3px; font-family:Arial" x="120" y="285">Number: 1</text><text fill="#FFFFFF" style="font-size:3px; font-family:Arial" x="120" y="290">Weekly: 1.0</text><text fill="#FFFFFF" style="font-size:3px; font-family:Arial" x="141" y="285">Total: 10.3 km</text><text fill="#FFFFFF" style="font-size:3px; font-family:Arial" x="141" y="290">Avg: 10.3 km</text><text fill="#FFFFFF" style="font-size:3px; font-family:Arial" x="167" y="285">Min: 10.3 km</text><text fill="#FFFFFF" style="font-size:3px; font-family:Arial" x="167" y="290">Max: 10.3 km</text><polyline fill="none" points="123.48493296187371,231.0 129.7475817501545,228.04266837332398 129.7475817501545,226.07111246697605 130.31691345758736,223.11377637693658 130.31691345758736,217.85628337902017 130.03224760387093,211.9415936395526 130.03224760387093,209.3128392046783 129.7475817501545,206.68408265337348 129.46291589550674,202.41234874422662 129.1782500417903,200.76937267603353 126.90092321112752,194.197460135445 123.48493296187371,191.56869141501375 121.49227198213339,189.92570989159867 120.06894271168858,188.282727540005 118.36094758752733,187.2969377322588 115.22962319292128,184.0109695577994 113.23696221318096,180.39640074502677 112.6676305057481,179.0820110947825 111.52896708995104,177.11042562592775 110.67496952787042,174.15304519142956 109.82097196485847,170.5384654670488 109.53630611114204,167.90967770013958 109.25164025649428,165.28088781563565 109.25164025649428,163.96649207989685 109.25164025649428,160.35190107882954 108.39764269441366,155.42290690192021 107.54364513233304,153.12270707264543 106.97431342490017,150.8225056224037 105.55098415445536,145.89349705982022 104.98165244609118,143.26468945015222 104.41232073865831,137.67846625321545 104.98165244609118,132.09223349718377 105.55098415445536,129.79201723262668 108.68230854906142,123.54856491484679 112.38296465110034,120.59113596682437 114.66029148455709,119.2767222400289 116.36828660871834,117.96230798517354 119.78427685704082,115.66208176570944 123.48493296187371,115.33347788685933 126.90092321112752,114.34766605496407 128.89358418807387,113.69045800133608 131.17091101966798,113.03324981522746 135.15623297728598,110.40441574854776 136.86422810144722,109.08999792230316 139.14155493397266,107.44697489449754 143.12687689159065,104.81813632976264 144.8348720157519,103.8323213220574 146.25820128712803,102.18929564859718 146.54286713991314,100.54626914905384 143.98087445273995,99.2318473525811 136.5795622477308,97.91742502734996 131.74024272989482,99.2318473525811 129.1782500417903,99.88905831659213 126.61625735554844,100.54626914905384 122.06160369049758,101.86069041490555 119.21494514960796,102.51790084992535 117.22228417173028,102.51790084992535 112.6676305057481,103.50371625390835 107.25897927954793,104.81813632976264 105.55098415445536,105.1467412665952 102.9889914682135,105.80395103944466 99.00366951152682,106.78976545110345 97.0110085317865,107.11837018933147 94.44901584554464,107.44697489449754 82.49304997455329,113.03324981522746 80.78505484946072,112.70464567281306 79.07705972529948,112.04743728879839 77.36906460300088,111.71883304743096 73.09907679073513,109.08999792230316 71.67574752029032,107.44697489449754 65.98243043851107,104.81813632976264 61.42777677346021,104.16092635830864 66.2670962922275,97.91742502734996 68.8290889794007,96.93160793697461 71.39108166657388,96.93160793697461 76.79973289277405,96.6030021738261 79.07705972529948,95.94579054880887 81.35438655968755,95.61718468554318 85.33970851451159,94.3027609065175 87.61703534796834,93.64554881770164 89.3250304730609,93.31694272370078 91.31769145000726,92.9883365968708 95.58767926134169,92.00251801777631 99.00366951152682,89.37366701778956 101.85032805148512,81.81570860231295 101.85032805148512,80.17267184960656 97.58034024015069,72.61469213524833 88.1863670554012,70.31443396676332 84.48571095336229,70.64304237626493 79.07705972529948,71.62886740453541 75.94573533069342,72.61469213524833 70.53708410356194,73.27190845715813 68.25975727196783,73.92912464682013 65.69776458479464,74.2577326928731 55.73445969168097,80.5012792663183 60.573779210448265,98.24603065871634 69.11375483311713,98.9032418213319 72.81441093608737,97.58881936385296 78.50772801786661,96.6030021738261 81.35438655968755,95.94579054880887 87.3323694942519,94.63136690040119 90.17902803514153,93.97415487887338 95.87234511692077,92.9883365968708 94.73368169926107,71.62886740453541 88.75569876469672,70.64304237626493 85.9090402238071,70.97165075177327 83.06238168291748,70.97165075177327 77.65373045485467,71.62886740453541 74.52240606024861,72.28608392504975 71.96041337400675,72.61469213524833 66.55176214687526,73.92912464682013 63.9897694606334,74.58634070423432 54.31113042216748,86.41620711283758 57.442454816773534,94.95997286168858 68.8290889794007,99.2318473525811 71.96041337400675,98.24603065871634 78.50772801786661,96.93160793697461 81.63905241154134,96.27439637831412 88.1863670554012,94.95997286168858 90.7483597425744,94.63136690040119 99.57300121895969,90.3594863906037 102.41965975891799,84.44456568802707 100.99633048847318,75.57216454204172 97.58034024015069,72.61469213524833 95.30301340762526,71.30025909445249 90.17902803514153,70.64304237626493 85.33970851451159,71.30025909445249 83.63171339128166,71.9574756808579 81.63905241154134,72.28608392504975 79.36172557994723,72.61469213524833 73.95307435188442,73.27190845715813 70.53708410356194,73.92912464682013 64.27443531434983,74.91494868369773 54.59579627588391,87.07342065661214 59.15044994093478,96.27439637831412 68.25975727196783,99.56045285169967 71.67574752029032,99.2318473525811 77.0843987474218,97.58881936385296 79.36172557994723,96.93160793697461 81.06972070410848,96.27439637831412 85.62437436822802,94.95997286168858 87.61703534796834,94.63136690040119 90.17902803514153,93.97415487887338 102.41965975891799,79.51545691653155 100.14233292732388,75.24355662916787 97.58034024015069,73.92912464682013 87.61703534796834,71.62886740453541 84.48571095336229,72.28608392504975 78.50772801786661,72.94330031308345 75.66106947697699,73.27190845715813 69.39842068683356,73.92912464682013 66.2670962922275,74.58634070423432 55.73445969168097,91.01669914042577 61.712442628107965,97.91742502734996 70.82174995727837,97.91742502734996 73.95307435188442,97.26021366752684 79.93105728831142,95.61718468554318 86.19370607845485,94.63136690040119 89.3250304730609,93.97415487887338 96.15701096877456,71.62886740453541 87.3323694942519,70.64304237626493 84.20104509871453,71.30025909445249 77.93839631043375,72.94330031308345 75.09173776954412,73.27190845715813 68.8290889794007,74.58634070423432 65.98243043851107,75.24355662916787 60.573779210448265,77.21520361094736 70.2524182498455,98.24603065871634 73.09907679073513,97.58881936385296 78.50772801786661,96.6030021738261 81.63905241154134,95.61718468554318 87.3323694942519,94.63136690040119 90.46369388792664,93.64554881770164 96.72634267900139,92.00251801777631 97.86500609386712,73.27190845715813 94.73368169926107,71.62886740453541 88.1863670554012,69.98582552513108 85.33970851451159,70.97165075177327 79.36172557994723,72.28608392504975 76.79973289277405,72.94330031308345 70.53708410356194,74.2577326928731 67.12109385430813,74.91494868369773 64.55910116806626,75.57216454204172 59.15044994093478,78.20102665387094 54.31113042216748,88.05924072419293 56.30379140004516,92.33112424402498 59.43511579465121,95.94579054880887 60.573779210448265,96.93160793697461 64.84376702271402,98.57463625678793 69.11375483311713,98.24603065871634 71.39108166657388,97.91742502734996 73.95307435188442,97.26021366752684 79.07705972529948,96.27439637831412 81.35438655968755,95.61718468554318 84.77037680707872,94.63136690040119 90.7483597425744,93.64554881770164 93.87968413718045,92.9883365968708 99.00366951152682,90.68809278262779 100.99633048847318,76.2293802688364 93.87968413718045,69.0 87.90170120168477,69.0 85.62437436822802,69.98582552513108 79.64639143459499,71.62886740453541 77.0843987474218,71.9574756808579 70.82174995727837,73.92912464682013 67.69042556360364,74.91494868369773 61.9971084818244,76.2293802688364 55.1651279842481,82.1443158541806 56.87312310934067,93.31694272370078 67.69042556360364,98.57463625678793 70.2524182498455,98.24603065871634 76.23040118534118,96.93160793697461 82.20838412083685,95.61718468554318 85.33970851451159,94.95997286168858 88.1863670554012,94.63136690040119 93.31035242974758,93.64554881770164 100.42699878104031,89.04506049351767 89.60969632677734,69.65721704950556 87.04770363960415,70.31443396676332 84.20104509871453,71.30025909445249 78.50772801786661,72.61469213524833 75.94573533069342,73.27190845715813 72.81441093608737,73.92912464682013 67.97509141732007,74.91494868369773 65.12843287643045,75.57216454204172 54.880462129600346,88.05924072419293 56.30379140004516,92.9883365968708 60.85844506602734,97.26021366752684 68.8290889794007,98.24603065871634 71.96041337400675,97.58881936385296 74.52240606024861,97.26021366752684 79.93105728831142,96.6030021738261 82.77771582920104,95.94579054880887 85.62437436822802,95.28857879061252 91.88702315837145,93.64554881770164 101.56566219776869,86.74481390090659 98.43433780223131,71.62886740453541 91.31769145000726,69.65721704950556 87.04770363960415,70.64304237626493 84.48571095336229,71.30025909445249 82.20838412083685,71.62886740453541 78.22306216415018,72.28608392504975 76.23040118534118,72.94330031308345 73.95307435188442,73.27190845715813 69.39842068683356,74.2577326928731 67.12109385430813,74.91494868369773 65.41309873014688,74.91494868369773 60.85844506602734,76.8865958629176 56.01912554632872,89.70227350923233 58.58111823257059,94.63136690040119 67.97509141732007,98.24603065871634 71.1064158109948,97.26021366752684 77.36906460300088,96.27439637831412 80.21572314202785,95.94579054880887 85.33970851451159,94.63136690040119 87.90170120168477,94.3027609065175 91.03302559722215,93.64554881770164 95.58767926134169,92.6597304365132 86.76303778588772,70.64304237626493 83.9163792449981,71.62886740453541 81.35438655968755,72.28608392504975 76.23040118534118,73.27190845715813 73.38374264445156,73.92912464682013 70.82174995727837,74.58634070423432 65.41309873014688,75.57216454204172 59.71978164836764,77.8724190061912 61.9971084818244,98.57463625678793 70.2524182498455,98.9032418213319 73.38374264445156,97.91742502734996 79.36172557994723,96.27439637831412 82.20838412083685,95.61718468554318 88.47103291098028,94.63136690040119 94.44901584554464,92.9883365968708 100.99633048847318,87.73063406837173 98.71900365594774,74.58634070423432 84.20104509871453,71.30025909445249 78.79239387251437,71.9574756808579 76.51506703905761,72.61469213524833 73.66840849816799,72.94330031308345 68.54442312568426,74.2577326928731 65.69776458479464,74.91494868369773 62.85110604390502,75.90077242138796 54.31113042216748,83.78735161502846 58.296452378854156,94.95997286168858 69.39842068683356,98.24603065871634 71.39108166657388,97.58881936385296 73.66840849816799,96.93160793697461 80.50038899574429,95.94579054880887 82.49304997455329,95.28857879061252 85.05504266079515,94.95997286168858 89.3250304730609,93.64554881770164 91.31769145000726,93.31694272370078 93.59501828346401,92.9883365968708 98.14967194851488,91.34530546632595 100.42699878104031,89.37366701778956 98.71900365594774,74.2577326928731 96.44167682435364,72.28608392504975 87.61703534796834,69.98582552513108 81.63905241154134,71.30025909445249 78.50772801786661,72.28608392504975 72.52974508330226,73.60051656793803 69.39842068683356,74.2577326928731 63.9897694606334,75.90077242138796 58.86578408628702,78.52963427035138 56.01912554632872,92.6597304365132 59.71978164836764,97.26021366752684 70.82174995727837,98.9032418213319 77.36906460300088,96.93160793697461 80.50038899574429,95.94579054880887 86.19370607845485,94.63136690040119 89.3250304730609,93.97415487887338 102.13499390520155,77.21520361094736 97.86500609386712,72.61469213524833 88.47103291098028,70.64304237626493 84.77037680707872,71.30025909445249 77.36906460300088,72.94330031308345 73.95307435188442,73.60051656793803 67.4057597098872,75.24355662916787 63.70510360505432,76.2293802688364 54.31113042216748,84.77317267539911 59.43511579465121,95.61718468554318 68.8290889794007,97.58881936385296 72.2450792286545,96.93160793697461 85.62437436822802,93.97415487887338 88.47103291098028,93.31694272370078 102.70432561263442,82.80153025779873 91.31769145000726,70.31443396676332 81.63905241154134,71.9574756808579 78.22306216415018,72.94330031308345 71.67574752029032,74.58634070423432 68.25975727196783,74.91494868369773 55.73445969168097,82.1443158541806 54.026464567519724,86.74481390090659 56.58845725376159,93.31694272370078 58.58111823257059,95.28857879061252 66.55176214687526,98.9032418213319 69.11375483311713,98.9032418213319 71.39108166657388,98.24603065871634 75.94573533069342,97.26021366752684 78.50772801786661,96.6030021738261 81.92371826712042,95.94579054880887 87.61703534796834,94.63136690040119 91.31769145000726,93.64554881770164 84.77037680707872,70.64304237626493 81.63905241154134,71.30025909445249 75.37640362326056,72.61469213524833 72.2450792286545,73.60051656793803 54.026464567519724,84.11595866829157 54.026464567519724,90.68809278262779 60.573779210448265,97.91742502734996 70.53708410356194,99.2318473525811 73.66840849816799,98.57463625678793 80.21572314202785,96.93160793697461 82.49304997455329,96.27439637831412 85.05504266079515,95.61718468554318 97.0110085317865,92.33112424402498 88.75569876469672,69.98582552513108 81.92371826712042,71.30025909445249 78.50772801786661,72.28608392504975 72.81441093608737,73.60051656793803 69.96775239612907,73.92912464682013 64.27443531434983,75.57216454204172 53.45713286008686,88.05924072419293 54.026464567519724,90.3594863906037 57.1577889630571,95.28857879061252 64.27443531434983,97.91742502734996 71.39108166657388,97.26021366752684 82.49304997455329,95.28857879061252 84.77037680707872,94.95997286168858 91.31769145000726,94.3027609065175 102.70432561263442,78.52963427035138 87.04770363960415,70.31443396676332 84.20104509871453,71.30025909445249 77.65373045485467,72.28608392504975 74.23774020560086,72.94330031308345 68.54442312568426,74.2577326928731 65.69776458479464,74.58634070423432 59.71978164836764,76.55798808252439 60.573779210448265,97.91742502734996 69.11375483311713,98.9032418213319 72.81441093608737,97.91742502734996 79.36172557994723,96.93160793697461 82.20838412083685,96.27439637831412 91.60235730465502,93.64554881770164 94.73368169926107,92.6597304365132 101.28099634312093,75.24355662916787 91.03302559722215,70.31443396676332 88.1863670554012,70.64304237626493 81.35438655968755,72.28608392504975 78.79239387251437,72.61469213524833 72.2450792286545,73.60051656793803 69.39842068683356,74.2577326928731 63.42043775226921,75.24355662916787 60.573779210448265,75.90077242138796 55.449793837964535,79.1868494017981 55.1651279842481,91.34530546632595 69.68308654148132,97.58881936385296 72.81441093608737,97.26021366752684 78.22306216415018,95.94579054880887 80.78505484946072,95.61718468554318 83.34704753663391,94.63136690040119 88.75569876469672,93.97415487887338 91.31769145000726,93.31694272370078 94.1643499918282,92.9883365968708 100.42699878104031,88.71645393688232 102.41965975891799,81.48710131901316 100.42699878104031,75.57216454204172 96.44167682435364,71.62886740453541 91.03302559722215,70.31443396676332 85.05504266079515,71.30025909445249 82.49304997455329,72.28608392504975 79.64639143459499,72.94330031308345 74.23774020560086,73.92912464682013 71.39108166657388,74.2577326928731 68.54442312568426,74.58634070423432 63.13577189762145,75.90077242138796 58.0117865242064,78.20102665387094 56.30379140004516,80.17267184960656 54.31113042216748,88.38784734671935 56.30379140004516,92.9883365968708 69.11375483311713,98.24603065871634 72.2450792286545,97.26021366752684 78.22306216415018,96.6030021738261 81.06972070410848,96.27439637831412 83.9163792449981,95.61718468554318 88.1863670554012,93.97415487887338 91.88702315837145,93.31694272370078 96.44167682435364,92.00251801777631 99.57300121895969,88.71645393688232 100.71166463568807,86.74481390090659 101.85032805148512,84.77317267539911 102.9889914682135,79.84406439983286 100.71166463568807,76.2293802688364 97.86500609386712,72.94330031308345 90.46369388792664,71.30025909445249 87.3323694942519,71.62886740453541 80.78505484946072,72.61469213524833 77.65373045485467,72.94330031308345 71.96041337400675,73.60051656793803 69.11375483311713,74.2577326928731 60.28911335859448,76.8865958629176 53.74179871380329,86.41620711283758 54.880462129600346,91.34530546632595 60.573779210448265,96.93160793697461 69.68308654148132,97.26021366752684 75.66106947697699,96.6030021738261 81.06972070410848,95.28857879061252 83.63171339128166,94.63136690040119 87.04770363960415,93.97415487887338 92.45635486766696,92.6597304365132 99.28833536524326,89.37366701778956 102.13499390520155,83.13013741048053 100.99633048847318,77.8724190061912 96.44167682435364,71.9574756808579 88.1863670554012,70.64304237626493 80.21572314202785,72.61469213524833 77.36906460300088,73.27190845715813 74.80707191582769,73.92912464682013 69.39842068683356,74.91494868369773 66.8364280005917,75.57216454204172 63.9897694606334,76.55798808252439 54.026464567519724,87.07342065661214 58.0117865242064,94.95997286168858 75.94573533069342,95.94579054880887 79.07705972529948,95.61718468554318 86.76303778588772,93.64554881770164 89.89436218049377,93.31694272370078 100.71166463568807,74.58634070423432 86.47837193123996,71.30025909445249 76.51506703905761,73.60051656793803 67.12109385430813,75.90077242138796 55.73445969168097,91.01669914042577 57.1577889630571,93.64554881770164 58.296452378854156,96.6030021738261 59.43511579465121,97.58881936385296 60.28911335859448,97.91742502734996 61.143110919743776,98.24603065871634" stroke="#4DD2FF" stroke-linecap="round" stroke-linejoin="round" stroke-width="0.5"><title>2021-03-22 10.3km</title></polyline></svg>